# xmcd
#
# Track frame offsets: 
#        150
#        8633
#        14970
#        29732
#        42652
#        51669
#        65877
#        72386
#        82667
#        94618
#        109535
#        118329
#
# Disc length: 1690 seconds
#
# Revision: 0
# Processed by: cddbd v1.5.1PL2 Copyright (c) Steve Scherf et al.
# Submitted via: ExactAudioCopy v0.95a5
#
DISCID=af06980c
DTITLE=Magic Sam - Black Magic Blues
DYEAR=2001
DGENRE=Blues
TTITLE0=EJ's Thing
TTITLE1=FP Blues
TTITLE2=PJ Blues
TTITLE3=West Madison Street Blues
TTITLE4=Chi Town Boogie
TTITLE5=Sly And Sleazy
TTITLE6=Creole 'N Roll
TTITLE7=Blues 'Nooze
TTITLE8=Boppin' The Blues
TTITLE9=43rd And S Park Blues
TTITLE10=Scatter Shot
TTITLE11=Black Magic Blues
EXTD=
EXTT0=
EXTT1=
EXTT2=
EXTT3=
EXTT4=
EXTT5=
EXTT6=
EXTT7=
EXTT8=
EXTT9=
EXTT10=
EXTT11=
PLAYORDER=
